<?xml version="1.0" encoding="UTF-8"?>
<svg id="Camada_1" xmlns="http://www.w3.org/2000/svg" version="1.1" viewBox="0 0 985.8 854.7">
  <!-- Generator: Adobe Illustrator 30.1.0, SVG Export Plug-In . SVG Version: 2.1.1 Build 136)  -->
  <defs>
    <style>
      .st0 {
        fill: #efeff4;
      }
    </style>
  </defs>
  <path class="st0" d="M885.2,529.9c6.9-23.1,10.6-47.3,10.6-72.6,0-139-112.2-251.5-251-252.2-4.6-4.7-9.4-9.4-14.1-14.1C554.6,114.8,476.5,50.4,404.1,1.6h-228.1c93.1,29.9,195.4,120.9,268,249.5,6,10.8,11.6,21.3,17.1,32.1,0,0,0,0,0,0-43.1,45.3-69.6,106.5-69.6,174v5.7c-5.5-5.3-11-10.9-16.6-16.2C210.1,281.8,100.5,108.3,85,1.6h-49.2L1.5,43.5v352.7c11.1,27.4,24.4,54.9,39.8,82.2,53.9,95.5,124.1,170.3,194.9,214.6,4.7,3,9.5,5.9,14.2,8.6l5.6,3c1.8,1,3.7,2,5.5,3,3.7,1.9,7.4,3.9,11.1,5.6,3.5,1.7,7.1,3.2,10.5,4.9h.3c3.5,1.5,7.1,3,10.6,4.4,1.7.7,3.4,1.3,5.2,2,27.8,10.1,54.9,15,80.5,14h3c22.1-1.2,42.6-7,61.3-17.6,23.2-13.1,41.6-32.7,55.1-57.1-63.5-44.5-105.6-117.7-107.5-200.8,44.3,43.2,89.2,82.5,133,116.6,0,.2.2.2.3.4,31.7,24.8,62.9,47.2,92.8,66.5,7.1,4.6,14,9,20.9,13.3.7.3,1.2.7,1.9,1,7.2,4.5,14.5,8.8,21.5,12.8,6.1,3.6,12.2,7,18,10.1,1.7,1,3.3,1.9,4.9,2.7,4.9,2.5,9.6,5,14.2,7.2,4.2,2.2,8.4,4.2,12.5,6.2,51.7,25.1,97.4,38.6,132.9,38.6s44.3-6.6,58-20.2c32.8-32.8,24.1-101.9-17.4-188.5Z"/>
</svg>