<?xml version="1.0" encoding="UTF-8"?>
<svg id="Camada_1" xmlns="http://www.w3.org/2000/svg" version="1.1" viewBox="0 0 1920 1080">
  <!-- Generator: Adobe Illustrator 30.1.0, SVG Export Plug-In . SVG Version: 2.1.1 Build 136)  -->
  <defs>
    <style>
      .st0 {
        fill: none;
        stroke: #000;
        stroke-miterlimit: 10;
        stroke-width: .8px;
      }
    </style>
  </defs>
  <path class="st0" d="M.2,381.2c19.6,71.6,49.9,146.1,91.2,219.1,3.9,6.8,7.8,13.6,11.8,20.3,74.8,126.2,169.6,225.2,265,285.1,6.7,4.3,13.4,8.4,20.1,12.2l7.9,4.3c2.6,1.5,5.3,2.9,7.9,4.3,5.3,2.6,10.5,5.5,15.8,7.9,5,2.4,10,4.5,14.8,6.9h.5c5,2.2,10.1,4.3,15.1,6.3,2.4,1,4.8,1.9,7.4,2.9,39.5,14.4,78,21.4,114.4,20h4.3c31.4-1.6,60.6-9.7,87.2-24.8,33.1-18.7,59.2-46.4,78.4-81.1-79.5-55.8-135.3-143.3-149.2-244-1.9-13.6-3-27.5-3.3-41.6,14.5,14.2,29,28,43.5,41.6,48.7,45.3,97.5,87,145.4,124.5,0,.2.2.2.5.5,45,35.2,89.2,67.2,131.9,94.7,10,6.5,19.8,12.7,29.7,18.9.9.5,1.7,1,2.6,1.5,10.3,6.5,20.6,12.5,30.6,18.2,8.6,5,17.2,9.8,25.6,14.4,2.4,1.5,4.8,2.7,7,3.8,6.9,3.6,13.6,7.2,20.1,10.3,6,3.1,12,6,17.7,8.9,73.5,35.8,138.4,55,188.9,55,35,0,63-9.3,82.4-28.7,46.8-46.6,34.4-144.9-24.4-268,9.9-32.8,15.2-67.3,15.2-103.2.2-186.1-141.2-339-322.5-357.1-11.2-1.1-22.5-1.7-34-1.8-6.4-6.7-13.3-13.4-20-20C858,120.6,785,56,714,.4M21.8.4C13.6,13.3,6.4,27.3.2,42.3M428.3.4c86.4,64.5,169.9,159.9,236.1,277.4,8.6,15.3,16.4,30.3,24.3,45.6-61.4,64.4-99.1,151.3-99.2,247.3v8.1c-7.9-7.6-15.7-15.5-23.6-23.2C368.3,357.8,226.8,151.2,174.1.4"/>
</svg>