<?xml version="1.0" encoding="UTF-8"?>
<svg id="Camada_1" xmlns="http://www.w3.org/2000/svg" version="1.1" viewBox="0 0 1066.8 363.5">
  <!-- Generator: Adobe Illustrator 30.1.0, SVG Export Plug-In . SVG Version: 2.1.1 Build 136)  -->
  <defs>
    <style>
      .st0 {
        fill: #5a6572;
      }
    </style>
  </defs>
  <g>
    <path class="st0" d="M117.8,329c0-5.7,3.4-9.9,10-11l17.9-3v-4c0-6.2-4.3-9.7-10.5-9.7s-10.5,3.1-11.2,8.8h-4.8c.9-8,6.8-12.8,16-12.8s15.2,5.9,15.2,13.9v28.3h-4.6v-7.1c-2.7,5.2-8.3,8-14.6,8s-13.5-4.7-13.5-11.4ZM145.7,324.3v-5.2l-16.4,2.7c-4.6.7-6.6,3.2-6.6,7.1s3.1,7.3,8.9,7.3,14.1-5,14.1-12Z"/>
    <path class="st0" d="M170.3,319.7v-1.6c0-12.4,6.9-20.8,18.9-20.8s15.9,5.7,17,14.1h-4.8c-1.1-6-5.3-9.8-12.2-9.8s-13.8,6.1-13.8,16.5v1.6c0,10.4,5,16.5,13.8,16.5s11.3-4,12.5-10.1h4.9c-1.6,8.8-7.8,14.4-17.4,14.4s-18.8-8.4-18.8-20.8Z"/>
    <path class="st0" d="M210.5,319.7v-1.6c0-12.6,7.4-20.8,19.2-20.8s19.1,8.1,19.1,20.8v1.6c0,12.6-7.4,20.8-19.1,20.8s-19.2-8.1-19.2-20.8ZM243.7,319.7v-1.6c0-10.3-5.1-16.5-14.1-16.5s-14.2,6.2-14.2,16.5v1.6c0,10.3,5.1,16.5,14.2,16.5s14.1-6.2,14.1-16.5Z"/>
    <path class="st0" d="M255.5,339.5v-41.2h4.7l.2,7.5c2.2-4.9,6.8-8.4,13.6-8.4,9.7,0,14.4,5.9,14.4,15.5v26.7h-4.8v-25.6c0-7.9-3.5-12.3-10.7-12.3s-12.6,5.6-12.6,14.4v23.5h-4.8Z"/>
    <path class="st0" d="M294.4,327.1h4.8c1,6.4,5.5,9.3,12.2,9.3s10.8-2.7,10.8-7.9-3.9-6.4-11.8-7.9c-8.9-1.6-14.3-4.2-14.3-11.7s6-11.6,14.6-11.6,14.6,4.3,15.5,12.3h-4.8c-.9-5.6-4.9-8.3-10.7-8.3s-9.8,2.9-9.8,7.4,3.4,6.4,11.3,7.7c9.1,1.5,15,4.2,15,11.6s-6.4,12.4-15.9,12.4-15.9-4.5-16.8-13.4Z"/>
    <path class="st0" d="M333.5,324.9v-26.6h4.8v25.8c0,7.6,3.1,12.2,10.5,12.2s12.1-6,12.1-14.6v-23.3h4.8v41.2h-4.8v-7.4c-2.3,4.8-7,8.4-13.4,8.4-9.4,0-14.2-5.9-14.2-15.5Z"/>
    <path class="st0" d="M379.4,279.9v59.6h-4.8v-59.6h4.8Z"/>
    <path class="st0" d="M392.8,329.6v-27.4h-8.5v-4h8.5v-12.7h4.8v12.7h12.2v4h-12.2v26.6c0,4.8,1.7,7.3,7.5,7.3s3.6-.4,5.1-.8v4.2c-1.6.4-3.9.8-5.6.8-7.7,0-11.8-3.6-11.8-10.8Z"/>
    <path class="st0" d="M413.3,319.7v-1.6c0-12.6,7.4-20.8,19.2-20.8s19.1,8.1,19.1,20.8v1.6c0,12.6-7.4,20.8-19.1,20.8s-19.2-8.1-19.2-20.8ZM446.5,319.7v-1.6c0-10.3-5.1-16.5-14.1-16.5s-14.2,6.2-14.2,16.5v1.6c0,10.3,5.1,16.5,14.2,16.5s14.1-6.2,14.1-16.5Z"/>
    <path class="st0" d="M458.3,339.5v-41.2h4.7v8.4c2.3-5.8,7.1-9.3,13.2-9.3s1.2,0,1.9.2v4.8c-.8,0-1.3,0-2,0-7.6,0-13,4.9-13,14.6v22.7h-4.8Z"/>
    <path class="st0" d="M487.7,291.2h-5.1v-11.3h5.1v11.3ZM487.6,298.3v41.2h-4.8v-41.2h4.8Z"/>
    <path class="st0" d="M494.4,329c0-5.7,3.4-9.9,10-11l17.9-3v-4c0-6.2-4.3-9.7-10.5-9.7s-10.5,3.1-11.2,8.8h-4.8c.9-8,6.8-12.8,16-12.8s15.2,5.9,15.2,13.9v28.3h-4.6v-7.1c-2.7,5.2-8.3,8-14.6,8s-13.5-4.7-13.5-11.4ZM522.3,324.3v-5.2l-16.4,2.7c-4.6.7-6.6,3.2-6.6,7.1s3.1,7.3,8.9,7.3,14.1-5,14.1-12Z"/>
    <path class="st0" d="M579.4,353.2v-21.7c-2,4.5-6.8,8.9-14.7,8.9s-17.8-8.2-17.8-20.8v-1.6c0-12.6,6.9-20.8,17.8-20.8s13,4.7,14.9,9.3v-8.4h4.6v54.9h-4.8ZM579.6,319.7v-1.6c0-10.3-5.2-16.5-14.3-16.5s-13.4,6.3-13.4,16.5v1.6c0,10.2,4.9,16.5,13.4,16.5s14.3-6.2,14.3-16.5Z"/>
    <path class="st0" d="M592.7,324.9v-26.6h4.8v25.8c0,7.6,3.1,12.2,10.5,12.2s12.1-6,12.1-14.6v-23.3h4.8v41.2h-4.8v-7.4c-2.3,4.8-7,8.4-13.4,8.4-9.4,0-14.2-5.9-14.2-15.5Z"/>
    <path class="st0" d="M631.7,319.7v-1.6c0-12.4,7.1-20.8,19.1-20.8s18.6,8.4,18,22.4h-32.1v.3c.2,10.2,5.2,16.2,14.1,16.2s11.3-3.4,12.8-9.3h4.9c-1.9,8.4-8.2,13.5-17.7,13.5s-19.1-8.4-19.1-20.8ZM663.7,315.6h0c-.5-8.9-4.9-14-13-14s-13.3,5.1-13.9,14h26.9Z"/>
    <path class="st0" d="M700.6,339.5l-15.9-41.2h5.2l13.4,35.9,13.1-35.9h5.1l-15.7,41.2h-5.2Z"/>
    <path class="st0" d="M722.9,329c0-5.7,3.4-9.9,10-11l17.9-3v-4c0-6.2-4.3-9.7-10.5-9.7s-10.5,3.1-11.2,8.8h-4.8c.9-8,6.8-12.8,16-12.8s15.2,5.9,15.2,13.9v28.3h-4.6v-7.1c-2.7,5.2-8.3,8-14.6,8s-13.5-4.7-13.5-11.4ZM750.8,324.3v-5.2l-16.4,2.7c-4.6.7-6.6,3.2-6.6,7.1s3.1,7.3,8.9,7.3,14.1-5,14.1-12Z"/>
    <path class="st0" d="M769,291.2h-5.1v-11.3h5.1v11.3ZM768.9,298.3v41.2h-4.8v-41.2h4.8Z"/>
    <path class="st0" d="M796,279.9v59.6h-4.8v-59.6h4.8Z"/>
    <path class="st0" d="M802.8,329c0-5.7,3.4-9.9,10-11l17.9-3v-4c0-6.2-4.3-9.7-10.5-9.7s-10.5,3.1-11.2,8.8h-4.8c.9-8,6.8-12.8,16-12.8s15.2,5.9,15.2,13.9v28.3h-4.6v-7.1c-2.7,5.2-8.3,8-14.6,8s-13.5-4.7-13.5-11.4ZM830.7,324.3v-5.2l-16.4,2.7c-4.6.7-6.6,3.2-6.6,7.1s3.1,7.3,8.9,7.3,14.1-5,14.1-12ZM821.4,291.2h-5.6l10.4-11.3h7.5l-12.3,11.3Z"/>
    <path class="st0" d="M855.3,319.7v-1.6c0-12.4,7.1-20.8,19.1-20.8s18.6,8.4,18,22.4h-32.1v.3c.2,10.2,5.2,16.2,14.1,16.2s11.3-3.4,12.8-9.3h4.9c-1.9,8.4-8.2,13.5-17.7,13.5s-19.1-8.4-19.1-20.8ZM887.3,315.6h0c-.5-8.9-4.9-14-13-14s-13.3,5.1-13.9,14h26.9Z"/>
    <path class="st0" d="M916.5,339.5v-37.2h-8.5v-4h8.5v-8.5c0-7.2,4-10.8,11.8-10.8s4,.4,5.6.8v4.2c-1.5-.4-3.6-.8-5.1-.8-5.8,0-7.5,2.5-7.5,7.3v7.8h12.2v4h-12.2v37.2h-4.8Z"/>
    <path class="st0" d="M934.7,329c0-5.7,3.4-9.9,10-11l17.9-3v-4c0-6.2-4.3-9.7-10.5-9.7s-10.5,3.1-11.2,8.8h-4.8c.9-8,6.8-12.8,16-12.8s15.2,5.9,15.2,13.9v28.3h-4.6v-7.1c-2.7,5.2-8.3,8-14.6,8s-13.5-4.7-13.5-11.4ZM962.6,324.3v-5.2l-16.4,2.7c-4.6.7-6.6,3.2-6.6,7.1s3.1,7.3,8.9,7.3,14.1-5,14.1-12Z"/>
    <path class="st0" d="M973.5,339.5v-3.8l23.3-33.3h-22.4v-4.1h27.9v3.7l-23.1,33.3h24v4.2h-29.8Z"/>
  </g>
  <g>
    <path class="st0" d="M109.4,216.1c40,0,68.9-29,68.9-74.4s-29-73.9-68.9-73.9-68.9,28.4-68.9,73.9,29,74.4,68.9,74.4M109.4,244.8c-56.8,0-102.8-42.6-102.8-103.1S52.6,38.9,109.4,38.9s102.8,42.6,102.8,102.8-45.5,103.1-102.8,103.1"/>
    <path class="st0" d="M336.4,83.2h33v159.6h-33V83.2ZM332,40.9c0-11.9,9.3-21.1,21.1-21.1s20.9,9.3,20.9,21.1-9.3,21.1-20.9,21.1-21.1-9.3-21.1-21.1"/>
    <path class="st0" d="M634.1,153.6c0-29.3-15.9-44.3-40-44.3s-40.3,15.1-40.3,44.3v89.2h-32.7v-89.2c0-29.3-15.9-44.3-40-44.3s-40.3,15.1-40.3,44.3v89.2h-33V83.2h33v18.2c10.7-13,28.1-20.9,47.2-20.9s46.3,10.7,57.3,31.6c9.8-19.4,32.4-31.6,55.6-31.6,37.4,0,65.8,23.5,65.8,68.1v94.1h-32.7v-89.2Z"/>
    <path class="st0" d="M703.9,83.2h33v159.6h-33V83.2ZM699.5,40.9c0-11.9,9.3-21.1,21.1-21.1s20.9,9.3,20.9,21.1-9.3,21.1-20.9,21.1-21.1-9.3-21.1-21.1"/>
    <polygon class="st0" points="877 110.1 804.6 215.8 877 215.8 877 242.8 766.4 242.8 766.4 215.8 839.1 110.1 766.4 110.1 766.4 83.2 877 83.2 877 110.1"/>
    <path class="st0" d="M978,106.8c-24.6,0-48.4,18.5-48.4,53s23.8,54.5,48.4,54.5,48.4-19.4,48.4-53.9-23.5-53.6-48.4-53.6M971.1,78.1c26.9,0,45.5,12.7,55.3,25.8v-23.2h33.3v159.6h-33.3v-23.8c-10.1,13.6-29.3,26.4-55.9,26.4-41.4,0-74.7-33.9-74.7-83.1s33.3-81.7,75.3-81.7"/>
    <path class="st0" d="M311,110.1v-27h-38.8v-39.7h-33.3v155c0,2.4,0,4.7.3,6.8,1.6,18.7,10.1,29.4,23.7,34.3,6.3,2.3,13.7,3.3,22,3.3h26.1v-27.5h-20.3c-13.9,0-18.5-4.9-18.5-16.8v-74.8l-17.9-13.5h56.7Z"/>
  </g>
</svg>