<svg width="180" height="52" viewBox="0 0 180 52" fill="none" xmlns="http://www.w3.org/2000/svg">
  <rect x="0" y="0" width="52" height="52" rx="14" fill="#E02020"/>
  <path d="M14 26C14 18.268 20.268 12 28 12C35.732 12 42 18.268 42 26C42 33.732 35.732 40 28 40C20.268 40 14 33.732 14 26Z" fill="white" fill-opacity="0.18"/>
  <circle cx="28" cy="26" r="8" fill="white"/>
  <path d="M66 16H74.6C80.3 16 84.4 19.8 84.4 25.8C84.4 31.9 80.3 35.8 74.6 35.8H66V16ZM74.1 31.9C77.4 31.9 79.4 29.8 79.4 25.8C79.4 21.9 77.4 19.9 74.1 19.9H70.8V31.9H74.1Z" fill="#111827"/>
  <path d="M87.8 16H92.6V35.8H87.8V16Z" fill="#111827"/>
  <path d="M96 16H100.8V31.7H110.2V35.8H96V16Z" fill="#111827"/>
  <path d="M112.6 16H117.4V35.8H112.6V16Z" fill="#111827"/>
  <path d="M120.8 16H125.6L133.8 27.7V16H138.4V35.8H133.9L125.4 23.7V35.8H120.8V16Z" fill="#111827"/>
  <path d="M142 16H155.8V19.9H146.8V23.8H154.7V27.6H146.8V31.9H156V35.8H142V16Z" fill="#111827"/>
</svg>