<?xml version="1.0" encoding="UTF-8"?>
<svg id="Camada_1" xmlns="http://www.w3.org/2000/svg" version="1.1" viewBox="0 0 1080 267.8">
  <defs>
    <style>
      .st0 {
        fill: #e62451;
      }

      .st1 {
        fill: #5c6673;
      }

      .st2 {
        fill: #010101;
        font-family: Poppins-Italic, Poppins;
        font-size: 33.7px;
        font-style: italic;
        letter-spacing: 0em;
      }
    </style>
  </defs>
  <text class="st2" transform="translate(890.9 191.7)"><tspan x="0" y="0">anos</tspan></text>
  <path class="st0" d="M851.4,201.2c-18.2,0-33.1-14.8-33.1-33.1h11.4c0,11.9,9.7,21.7,21.7,21.7s21.7-9.7,21.7-21.7-9.7-21.7-21.7-21.7h-11.2l15.8-22.5h-26.6v-11.4h48.6l-16.9,24c13.5,4.2,23.4,16.8,23.4,31.6s-14.8,33.1-33.1,33.1Z"/>
  <path class="st0" d="M933.1,162.9h-11.4c0-10.5-2.9-17.9-8.5-21.9-11.8-8.4-32.7-1.2-32.9-1.2l-7-8,19.7-26.2h34.4v11.4h-28.7l-6.6,8.9c8.6-.8,19.3-.1,27.7,5.8,8.8,6.3,13.3,16.8,13.3,31.2Z"/>
  <g>
    <path class="st1" d="M342.1,177.3c19.1,0,33-13.9,33-35.6s-13.9-35.4-33-35.4-33,13.6-33,35.4,13.9,35.6,33,35.6M342.1,191c-27.2,0-49.2-20.4-49.2-49.4s22.1-49.2,49.2-49.2,49.2,20.4,49.2,49.2-21.8,49.4-49.2,49.4"/>
    <path class="st1" d="M450.8,113.6h15.8v76.4h-15.8v-76.4ZM448.7,93.4c0-5.7,4.4-10.1,10.1-10.1s10,4.4,10,10.1-4.4,10.1-10,10.1-10.1-4.4-10.1-10.1"/>
    <path class="st1" d="M593.4,147.4c0-14-7.6-21.2-19.1-21.2s-19.3,7.2-19.3,21.2v42.7h-15.7v-42.7c0-14-7.6-21.2-19.1-21.2s-19.3,7.2-19.3,21.2v42.7h-15.8v-76.4h15.8v8.7c5.1-6.2,13.5-10,22.6-10s22.2,5.1,27.5,15.1c4.7-9.3,15.5-15.1,26.6-15.1,17.9,0,31.5,11.2,31.5,32.6v45.1h-15.7v-42.7Z"/>
    <path class="st1" d="M626.8,113.6h15.8v76.4h-15.8v-76.4ZM624.7,93.4c0-5.7,4.4-10.1,10.1-10.1s10,4.4,10,10.1-4.4,10.1-10,10.1-10.1-4.4-10.1-10.1"/>
    <polygon class="st1" points="709.7 126.5 675 177.2 709.7 177.2 709.7 190.1 656.7 190.1 656.7 177.2 691.5 126.5 656.7 126.5 656.7 113.6 709.7 113.6 709.7 126.5"/>
    <path class="st1" d="M758.1,124.9c-11.8,0-23.2,8.9-23.2,25.4s11.4,26.1,23.2,26.1,23.2-9.3,23.2-25.8-11.2-25.7-23.2-25.7M754.8,111.2c12.9,0,21.8,6.1,26.5,12.3v-11.1h16v76.4h-16v-11.4c-4.9,6.5-14,12.6-26.8,12.6-19.8,0-35.8-16.2-35.8-39.8s16-39.1,36.1-39.1"/>
    <path class="st1" d="M438.6,126.5v-12.9h-18.6v-19h-16v74.2c0,1.1,0,2.2.1,3.2.8,9,4.8,14.1,11.4,16.4,3,1.1,6.6,1.6,10.5,1.6h12.5v-13.2h-9.7c-6.7,0-8.9-2.4-8.9-8v-35.8l-8.6-6.5h27.2Z"/>
  </g>
  <g>
    <path class="st1" d="M273,207.5c-2.5,2.5-6.1,3.7-10.5,3.7-6.5,0-14.8-2.5-24.2-7,15.1-4.2,27.1-16,31.6-30.9,7.5,15.7,9.1,28.3,3.2,34.3"/>
    <path class="st0" d="M271.8,160c0,4.6-.7,9-1.9,13.2-4.5,15-16.5,26.7-31.6,30.9-.7-.4-1.5-.7-2.3-1.1-.8-.4-1.7-.9-2.6-1.3-.3-.2-.6-.3-.9-.5-1.1-.6-2.2-1.2-3.3-1.8-1.3-.7-2.6-1.5-3.9-2.3-.1,0-.2-.1-.3-.2-1.3-.8-2.5-1.6-3.8-2.4-5.5-3.5-11.1-7.6-16.9-12.1,0,0,0,0,0,0-8-6.2-16.1-13.4-24.2-21.2v-1c0-12.3,4.8-23.4,12.7-31.6t0,0c8.3-8.7,20.1-14.2,33.1-14.2h.2c25.2.1,45.6,20.6,45.6,45.9"/>
    <path class="st1" d="M108.4,85.6c-4,5.5-6.4,13-7,21.5,0,.3,0,.6,0,.9,0,.3,0,.6,0,.9v.2c0,.3,0,.6,0,.9,0,1.2,0,2.4,0,3.5v.6c0,.3,0,.6,0,.8,0,1.7.2,3.5.4,5.3,0,.5,0,1,.2,1.5,0,.2,0,.5.1.8,0,.3,0,.5,0,.8.1.8.2,1.6.4,2.4,2.1,12.1,6.7,25.3,13.9,38.1,9.8,17.4,22.6,31,35.4,39,.9.6,1.7,1.1,2.6,1.6l1,.6c.3.2.7.4,1,.6.7.3,1.3.7,2,1,.6.3,1.3.6,1.9.9h0c.6.3,1.3.6,1.9.8.3.1.6.2.9.4,5.1,1.8,10,2.7,14.6,2.5h.6c4-.2,7.8-1.3,11.2-3.2,4.2-2.4,7.6-5.9,10-10.4-11.6-8.1-19.2-21.4-19.5-36.5-1-1-2-2-3-3-30.8-30.8-51-63.2-52.9-82.4h0c20.1-3.7,47.7,15.3,65.5,46.9,1.1,2,2.1,3.9,3.1,5.9t0,0c8.3-8.7,20.1-14.2,33.1-14.2h.2c-.8-.9-1.7-1.7-2.6-2.6-40.1-40.2-83.1-62.3-95.9-49.4l-19.2,23.5Z"/>
  </g>
</svg>
